<?xml version="1.0" encoding="UTF-8"?>
<svg version="1.1" xmlns="http://www.w3.org/2000/svg" width="544" height="425">
<path d="M0 0 C0.9524913 -0.00099701 1.9049826 -0.00199402 2.88633728 -0.00302124 C4.89086291 0.00164033 6.89540242 0.0209804 8.8996582 0.05419922 C11.95956498 0.10148093 15.01599127 0.09529899 18.07617188 0.08203125 C20.02996859 0.09318385 21.9837507 0.10740303 23.9375 0.125 C25.30177879 0.12226578 25.30177879 0.12226578 26.69361877 0.11947632 C32.20920331 0.24204702 35.60628281 0.92805492 39.90234375 4.7265625 C42.31029213 8.30372737 42.14419495 11.55711803 42.12939453 15.79003906 C42.12968658 16.49288025 42.12997864 17.19572144 42.13027954 17.91986084 C42.12888967 20.23576334 42.11334488 22.55134142 42.09765625 24.8671875 C42.0939249 26.47572656 42.0910785 28.08426791 42.08908081 29.69281006 C42.08145398 33.92116601 42.06181369 38.149384 42.03967285 42.37768555 C42.01919393 46.69447972 42.01007472 51.01129623 42 55.328125 C41.97856687 63.79433406 41.94444243 72.2604311 41.90234375 80.7265625 C35.51611052 80.80303845 29.12999673 80.85534012 22.7434082 80.89135742 C20.57376695 80.90638286 18.40415577 80.92680903 16.23461914 80.95288086 C13.10425365 80.98953956 9.97429205 81.00635176 6.84375 81.01953125 C5.88400772 81.03501511 4.92426544 81.05049896 3.93544006 81.06645203 C-3.30293606 81.06823428 -9.48745113 80.09229061 -15.62255859 76.07202148 C-17.81175724 72.59111592 -17.70836638 69.18821602 -17.69921875 65.19921875 C-17.707789 64.3732872 -17.71635925 63.54735565 -17.72518921 62.69639587 C-17.73665738 60.95233827 -17.73768969 59.20818501 -17.72900391 57.46411133 C-17.72268358 54.80058013 -17.76959842 52.14149714 -17.8203125 49.47851562 C-17.82485906 47.78125559 -17.8262652 46.08398364 -17.82421875 44.38671875 C-17.84263824 43.59386978 -17.86105774 42.80102081 -17.8800354 41.98414612 C-17.78990401 36.57593471 -17.78990401 36.57593471 -15.78338623 34.11398315 C-11.6162269 30.56940361 -8.98095087 29.60086095 -3.65234375 29.62890625 C-2.57597656 29.63212891 -1.49960937 29.63535156 -0.390625 29.63867188 C0.73730469 29.64705078 1.86523438 29.65542969 3.02734375 29.6640625 C4.16300781 29.66857422 5.29867188 29.67308594 6.46875 29.67773438 C9.28000013 29.68954635 12.09114605 29.70601743 14.90234375 29.7265625 C14.90234375 27.0865625 14.90234375 24.4465625 14.90234375 21.7265625 C13.25234375 21.7265625 11.60234375 21.7265625 9.90234375 21.7265625 C9.90234375 23.3765625 9.90234375 25.0265625 9.90234375 26.7265625 C0.99234375 26.7265625 -7.91765625 26.7265625 -17.09765625 26.7265625 C-17.24203125 23.5503125 -17.38640625 20.3740625 -17.53515625 17.1015625 C-17.59888428 16.1120459 -17.6626123 15.1225293 -17.72827148 14.10302734 C-17.74575439 13.30590332 -17.7632373 12.5087793 -17.78125 11.6875 C-17.81790771 10.88103027 -17.85456543 10.07456055 -17.89233398 9.24365234 C-15.25170312 0.87962648 -7.68915081 -0.15606728 0 0 Z M9.90234375 50.7265625 C9.90234375 53.6965625 9.90234375 56.6665625 9.90234375 59.7265625 C11.55234375 59.7265625 13.20234375 59.7265625 14.90234375 59.7265625 C14.90234375 56.7565625 14.90234375 53.7865625 14.90234375 50.7265625 C13.25234375 50.7265625 11.60234375 50.7265625 9.90234375 50.7265625 Z " fill="#FFFFFF" transform="translate(430.09765625,245.2734375)"/>
<path d="M0 0 C0.9524913 -0.00099701 1.9049826 -0.00199402 2.88633728 -0.00302124 C4.89086291 0.00164033 6.89540242 0.0209804 8.8996582 0.05419922 C11.95956498 0.10148093 15.01599127 0.09529899 18.07617188 0.08203125 C20.02996859 0.09318385 21.9837507 0.10740303 23.9375 0.125 C25.30177879 0.12226578 25.30177879 0.12226578 26.69361877 0.11947632 C32.20920331 0.24204702 35.60628281 0.92805492 39.90234375 4.7265625 C41.65206653 7.58955823 42.14948606 9.70093884 42.12939453 13.03613281 C42.12924347 13.87670227 42.12909241 14.71727173 42.12893677 15.58331299 C42.1186142 16.48136658 42.10829163 17.37942017 42.09765625 18.3046875 C42.09482635 19.2312616 42.09199646 20.15783569 42.08908081 21.11248779 C42.07789986 24.06731159 42.05279902 27.02183055 42.02734375 29.9765625 C42.01731126 31.98176645 42.00818588 33.98697516 42 35.9921875 C41.97967024 40.90385732 41.94051753 45.8148693 41.90234375 50.7265625 C31.34234375 50.7265625 20.78234375 50.7265625 9.90234375 50.7265625 C9.90234375 53.6965625 9.90234375 56.6665625 9.90234375 59.7265625 C11.55234375 59.7265625 13.20234375 59.7265625 14.90234375 59.7265625 C14.90234375 58.0765625 14.90234375 56.4265625 14.90234375 54.7265625 C23.81234375 54.7265625 32.72234375 54.7265625 41.90234375 54.7265625 C41.96421875 57.4284375 42.02609375 60.1303125 42.08984375 62.9140625 C42.13081177 64.17706177 42.13081177 64.17706177 42.17260742 65.46557617 C42.22337736 70.05834464 41.87074849 72.99303196 38.90234375 76.7265625 C31.81604144 81.94804841 23.32524934 80.94492351 14.92041016 80.96679688 C12.67312177 80.97647304 10.42676058 81.00751771 8.1796875 81.0390625 C-8.78973851 81.16829766 -8.78973851 81.16829766 -15.17298889 76.06851196 C-17.70512036 72.98739569 -17.62121144 71.17667706 -17.6628418 67.21728516 C-17.67466995 66.57284958 -17.68649811 65.928414 -17.69868469 65.26445007 C-17.73151366 63.13949299 -17.73452875 61.01581878 -17.734375 58.890625 C-17.7446937 57.40855387 -17.75575727 55.92648776 -17.76753235 54.44442749 C-17.78695655 51.33912003 -17.79038933 48.23426285 -17.78393555 45.12890625 C-17.77794238 41.1580796 -17.82214921 37.18959326 -17.87982464 33.21924782 C-17.91688123 30.15813239 -17.92172239 27.09757795 -17.91755104 24.03626633 C-17.9204163 22.57304806 -17.93443889 21.10980593 -17.96002769 19.64680862 C-18.13339273 8.57025152 -18.13339273 8.57025152 -15.83879089 4.48568726 C-11.31059596 -0.03165408 -6.0948414 -0.12370746 0 0 Z M9.90234375 21.7265625 C9.90234375 24.3665625 9.90234375 27.0065625 9.90234375 29.7265625 C11.55234375 29.7265625 13.20234375 29.7265625 14.90234375 29.7265625 C14.90234375 27.0865625 14.90234375 24.4465625 14.90234375 21.7265625 C13.25234375 21.7265625 11.60234375 21.7265625 9.90234375 21.7265625 Z " fill="#FFFFFF" transform="translate(20.09765625,245.2734375)"/>
<path d="M0 0 C0.9524913 -0.00099701 1.9049826 -0.00199402 2.88633728 -0.00302124 C4.89086291 0.00164033 6.89540242 0.0209804 8.8996582 0.05419922 C11.95956498 0.10148093 15.01599127 0.09529899 18.07617188 0.08203125 C20.02996859 0.09318385 21.9837507 0.10740303 23.9375 0.125 C25.30177879 0.12226578 25.30177879 0.12226578 26.69361877 0.11947632 C32.20920331 0.24204702 35.60628281 0.92805492 39.90234375 4.7265625 C42.28929607 8.28452611 42.1443186 11.48965499 42.12939453 15.69824219 C42.12968658 16.3913298 42.12997864 17.08441742 42.13027954 17.79850769 C42.12888983 20.08194642 42.11334581 22.365056 42.09765625 24.6484375 C42.09392484 26.23455629 42.09107847 27.82067739 42.08908081 29.40679932 C42.08145443 33.57597243 42.06181453 37.74500561 42.03967285 41.91412354 C42.01919296 46.17059435 42.01007451 50.42708784 42 54.68359375 C41.97856766 63.03131413 41.94444377 71.37892089 41.90234375 79.7265625 C34.73078207 79.80265929 27.55932461 79.85518212 20.38745117 79.89135742 C17.94795847 79.90643904 15.50849285 79.92690719 13.0690918 79.95288086 C9.56161816 79.98929062 6.05450321 80.00629539 2.546875 80.01953125 C1.45711868 80.03501511 0.36736237 80.05049896 -0.75541687 80.06645203 C-10.17399423 80.06854297 -10.17399423 80.06854297 -14.09765625 76.7265625 C-14.97925415 76.15204346 -14.97925415 76.15204346 -15.87866211 75.56591797 C-17.94163184 72.45307721 -17.58646804 68.91412745 -17.6015625 65.296875 C-17.6115477 64.4695285 -17.6215329 63.64218201 -17.63182068 62.7897644 C-17.64700428 61.03974406 -17.65404639 59.28963693 -17.65356445 57.53955078 C-17.66011753 54.86735097 -17.71456445 52.19888433 -17.77148438 49.52734375 C-17.7802886 47.82553352 -17.78624138 46.12370567 -17.7890625 44.421875 C-17.81061905 43.62588898 -17.8321756 42.82990295 -17.85438538 42.00979614 C-17.78757524 36.57568615 -17.78757524 36.57568615 -15.78561401 34.11175537 C-11.61966871 30.56835496 -8.97866816 29.60087296 -3.65234375 29.62890625 C-2.57597656 29.63212891 -1.49960937 29.63535156 -0.390625 29.63867188 C0.73730469 29.64705078 1.86523438 29.65542969 3.02734375 29.6640625 C4.16300781 29.66857422 5.29867188 29.67308594 6.46875 29.67773438 C9.28000013 29.68954635 12.09114605 29.70601743 14.90234375 29.7265625 C14.90234375 27.0865625 14.90234375 24.4465625 14.90234375 21.7265625 C13.25234375 21.7265625 11.60234375 21.7265625 9.90234375 21.7265625 C9.90234375 23.3765625 9.90234375 25.0265625 9.90234375 26.7265625 C0.99234375 26.7265625 -7.91765625 26.7265625 -17.09765625 26.7265625 C-17.24203125 23.5503125 -17.38640625 20.3740625 -17.53515625 17.1015625 C-17.59888428 16.1120459 -17.6626123 15.1225293 -17.72827148 14.10302734 C-17.74575439 13.30590332 -17.7632373 12.5087793 -17.78125 11.6875 C-17.81790771 10.88103027 -17.85456543 10.07456055 -17.89233398 9.24365234 C-15.25170312 0.87962648 -7.68915081 -0.15606728 0 0 Z M9.90234375 50.7265625 C9.90234375 53.6965625 9.90234375 56.6665625 9.90234375 59.7265625 C11.55234375 59.7265625 13.20234375 59.7265625 14.90234375 59.7265625 C14.90234375 56.7565625 14.90234375 53.7865625 14.90234375 50.7265625 C13.25234375 50.7265625 11.60234375 50.7265625 9.90234375 50.7265625 Z " fill="#FFFFFF" transform="translate(314.09765625,164.2734375)"/>
<path d="M0 0 C0.9524913 -0.00099701 1.9049826 -0.00199402 2.88633728 -0.00302124 C4.89086291 0.00164033 6.89540242 0.0209804 8.8996582 0.05419922 C11.95956498 0.10148093 15.01599127 0.09529899 18.07617188 0.08203125 C20.02996859 0.09318385 21.9837507 0.10740303 23.9375 0.125 C25.30177879 0.12226578 25.30177879 0.12226578 26.69361877 0.11947632 C32.20920331 0.24204702 35.60628281 0.92805492 39.90234375 4.7265625 C42.28929607 8.28452611 42.1443186 11.48965499 42.12939453 15.69824219 C42.12968658 16.3913298 42.12997864 17.08441742 42.13027954 17.79850769 C42.12888983 20.08194642 42.11334581 22.365056 42.09765625 24.6484375 C42.09392484 26.23455629 42.09107847 27.82067739 42.08908081 29.40679932 C42.08145443 33.57597243 42.06181453 37.74500561 42.03967285 41.91412354 C42.01919296 46.17059435 42.01007451 50.42708784 42 54.68359375 C41.97856766 63.03131413 41.94444377 71.37892089 41.90234375 79.7265625 C34.73078207 79.80265929 27.55932461 79.85518212 20.38745117 79.89135742 C17.94795847 79.90643904 15.50849285 79.92690719 13.0690918 79.95288086 C9.56161816 79.98929062 6.05450321 80.00629539 2.546875 80.01953125 C1.45711868 80.03501511 0.36736237 80.05049896 -0.75541687 80.06645203 C-10.17399423 80.06854297 -10.17399423 80.06854297 -14.09765625 76.7265625 C-14.97925415 76.15204346 -14.97925415 76.15204346 -15.87866211 75.56591797 C-17.94163184 72.45307721 -17.58646804 68.91412745 -17.6015625 65.296875 C-17.6115477 64.4695285 -17.6215329 63.64218201 -17.63182068 62.7897644 C-17.64700428 61.03974406 -17.65404639 59.28963693 -17.65356445 57.53955078 C-17.66011753 54.86735097 -17.71456445 52.19888433 -17.77148438 49.52734375 C-17.7802886 47.82553352 -17.78624138 46.12370567 -17.7890625 44.421875 C-17.81061905 43.62588898 -17.8321756 42.82990295 -17.85438538 42.00979614 C-17.78757524 36.57568615 -17.78757524 36.57568615 -15.78561401 34.11175537 C-11.61966871 30.56835496 -8.97866816 29.60087296 -3.65234375 29.62890625 C-2.57597656 29.63212891 -1.49960937 29.63535156 -0.390625 29.63867188 C0.73730469 29.64705078 1.86523438 29.65542969 3.02734375 29.6640625 C4.16300781 29.66857422 5.29867188 29.67308594 6.46875 29.67773438 C9.28000013 29.68954635 12.09114605 29.70601743 14.90234375 29.7265625 C14.90234375 27.0865625 14.90234375 24.4465625 14.90234375 21.7265625 C13.25234375 21.7265625 11.60234375 21.7265625 9.90234375 21.7265625 C9.90234375 23.3765625 9.90234375 25.0265625 9.90234375 26.7265625 C0.99234375 26.7265625 -7.91765625 26.7265625 -17.09765625 26.7265625 C-17.24203125 23.5503125 -17.38640625 20.3740625 -17.53515625 17.1015625 C-17.59888428 16.1120459 -17.6626123 15.1225293 -17.72827148 14.10302734 C-17.74575439 13.30590332 -17.7632373 12.5087793 -17.78125 11.6875 C-17.81790771 10.88103027 -17.85456543 10.07456055 -17.89233398 9.24365234 C-15.25170312 0.87962648 -7.68915081 -0.15606728 0 0 Z M9.90234375 50.7265625 C9.90234375 53.6965625 9.90234375 56.6665625 9.90234375 59.7265625 C11.55234375 59.7265625 13.20234375 59.7265625 14.90234375 59.7265625 C14.90234375 56.7565625 14.90234375 53.7865625 14.90234375 50.7265625 C13.25234375 50.7265625 11.60234375 50.7265625 9.90234375 50.7265625 Z " fill="#FFFFFF" transform="translate(462.09765625,82.2734375)"/>
<path d="M0 0 C8.91 0 17.82 0 27 0 C27.33 0.66 27.66 1.32 28 2 C28.8146875 1.67773438 29.629375 1.35546875 30.46875 1.0234375 C34.59769309 -0.17322521 38.22932632 -0.36749442 42.5 -0.375 C43.60021484 -0.41173828 43.60021484 -0.41173828 44.72265625 -0.44921875 C49.91912587 -0.47710678 52.92876493 0.50511448 57 4 C59.41426185 7.57052737 59.24183788 10.83436696 59.22705078 15.06347656 C59.22734283 15.76631775 59.22763489 16.46915894 59.22793579 17.19329834 C59.22654592 19.50920084 59.21100113 21.82477892 59.1953125 24.140625 C59.19158115 25.74916406 59.18873475 27.35770541 59.18673706 28.96624756 C59.17911023 33.19460351 59.15946994 37.4228215 59.1373291 41.65112305 C59.11685018 45.96791722 59.10773097 50.28473373 59.09765625 54.6015625 C59.0762231 63.06777862 59.04104874 71.53385624 59 80 C50.09 80 41.18 80 32 80 C32 60.2 32 40.4 32 20 C30.35 20 28.7 20 27 20 C27 39.8 27 59.6 27 80 C18.09 80 9.18 80 0 80 C0 53.6 0 27.2 0 0 Z " fill="#FFFFFF" transform="translate(478,246)"/>
<path d="M0 0 C8.91 0 17.82 0 27 0 C27.33 0.66 27.66 1.32 28 2 C28.8146875 1.67773438 29.629375 1.35546875 30.46875 1.0234375 C34.59769309 -0.17322521 38.22932632 -0.36749442 42.5 -0.375 C43.60021484 -0.41173828 43.60021484 -0.41173828 44.72265625 -0.44921875 C49.91912587 -0.47710678 52.92876493 0.50511448 57 4 C59.41426185 7.57052737 59.24183788 10.83436696 59.22705078 15.06347656 C59.22734283 15.76631775 59.22763489 16.46915894 59.22793579 17.19329834 C59.22654592 19.50920084 59.21100113 21.82477892 59.1953125 24.140625 C59.19158115 25.74916406 59.18873475 27.35770541 59.18673706 28.96624756 C59.17911023 33.19460351 59.15946994 37.4228215 59.1373291 41.65112305 C59.11685018 45.96791722 59.10773097 50.28473373 59.09765625 54.6015625 C59.0762231 63.06777862 59.04104874 71.53385624 59 80 C50.09 80 41.18 80 32 80 C32 60.2 32 40.4 32 20 C30.35 20 28.7 20 27 20 C27 39.8 27 59.6 27 80 C18.09 80 9.18 80 0 80 C0 53.6 0 27.2 0 0 Z " fill="#FFFFFF" transform="translate(224,246)"/>
<path d="M0 0 C0.9524913 -0.00099701 1.9049826 -0.00199402 2.88633728 -0.00302124 C4.89086291 0.00164033 6.89540242 0.0209804 8.8996582 0.05419922 C11.95956498 0.10148093 15.01599127 0.09529899 18.07617188 0.08203125 C20.02996859 0.09318385 21.9837507 0.10740303 23.9375 0.125 C25.30177879 0.12226578 25.30177879 0.12226578 26.69361877 0.11947632 C32.20920331 0.24204702 35.60628281 0.92805492 39.90234375 4.7265625 C42.0906545 8.09464416 42.16031378 10.9175702 42.17700195 14.88452148 C42.19129997 16.75182167 42.19129997 16.75182167 42.20588684 18.65684509 C42.2056254 20.01211577 42.2046883 21.36738645 42.203125 22.72265625 C42.20701391 24.11743802 42.21134899 25.51221861 42.21611023 26.90699768 C42.22356476 29.82809287 42.22328679 32.74906718 42.21801758 35.67016602 C42.21222392 39.40717468 42.22915457 43.14368756 42.25236225 46.88061428 C42.26711866 49.76059343 42.26796873 52.64045369 42.26485252 55.52046394 C42.26536478 56.89792933 42.27058463 58.27540153 42.28066444 59.65283012 C42.29304702 61.58158437 42.28428458 63.51043901 42.2746582 65.43920898 C42.27528763 66.53522934 42.27591705 67.63124969 42.27656555 68.76048279 C41.73294488 73.06921691 40.08907951 75.70777023 36.82006836 78.51416016 C32.60750324 80.26460768 28.73825134 80.15563311 24.21875 80.125 C23.28562485 80.12787018 22.35249969 80.13074036 21.39109802 80.13369751 C19.42177726 80.13573483 17.45243611 80.1302282 15.4831543 80.11767578 C12.4785403 80.10163562 9.47527511 80.1175265 6.47070312 80.13671875 C4.55338246 80.13473591 2.63606264 80.13089138 0.71875 80.125 C-0.17516953 80.13107269 -1.06908905 80.13714539 -1.99009705 80.1434021 C-7.08696099 80.08631533 -10.71749602 79.62623112 -15.09765625 76.7265625 C-17.47022147 73.16771467 -17.3753146 71.55847901 -17.43579102 67.33081055 C-17.45309517 66.36437622 -17.45309517 66.36437622 -17.4707489 65.37841797 C-17.50503925 63.24834762 -17.52355418 61.11856691 -17.5390625 58.98828125 C-17.5459654 58.25933969 -17.55286831 57.53039814 -17.55998039 56.77936745 C-17.59580838 52.92102467 -17.6193509 49.06282798 -17.63305664 45.2043457 C-17.64959928 41.22579137 -17.70801342 37.24901634 -17.77620029 33.27105999 C-17.82105461 30.20573368 -17.83455599 27.14083117 -17.839674 24.07520485 C-17.84755366 22.60914946 -17.8671575 21.14310684 -17.89889717 19.67737389 C-18.12371575 8.56133546 -18.12371575 8.56133546 -15.84324646 4.48345947 C-11.31605213 -0.03263462 -6.09267361 -0.12366346 0 0 Z M9.90234375 21.7265625 C9.90234375 34.2665625 9.90234375 46.8065625 9.90234375 59.7265625 C11.55234375 59.7265625 13.20234375 59.7265625 14.90234375 59.7265625 C14.90234375 47.1865625 14.90234375 34.6465625 14.90234375 21.7265625 C13.25234375 21.7265625 11.60234375 21.7265625 9.90234375 21.7265625 Z " fill="#FFFFFF" transform="translate(84.09765625,82.2734375)"/>
<path d="M0 0 C0.9524913 -0.00099701 1.9049826 -0.00199402 2.88633728 -0.00302124 C4.89086291 0.00164033 6.89540242 0.0209804 8.8996582 0.05419922 C11.95956498 0.10148093 15.01599127 0.09529899 18.07617188 0.08203125 C20.02996859 0.09318385 21.9837507 0.10740303 23.9375 0.125 C25.30177879 0.12226578 25.30177879 0.12226578 26.69361877 0.11947632 C32.20920331 0.24204702 35.60628281 0.92805492 39.90234375 4.7265625 C41.65206653 7.58955823 42.14948606 9.70093884 42.12939453 13.03613281 C42.12924347 13.87670227 42.12909241 14.71727173 42.12893677 15.58331299 C42.1186142 16.48136658 42.10829163 17.37942017 42.09765625 18.3046875 C42.09482635 19.2312616 42.09199646 20.15783569 42.08908081 21.11248779 C42.07789986 24.06731159 42.05279902 27.02183055 42.02734375 29.9765625 C42.01731126 31.98176645 42.00818588 33.98697516 42 35.9921875 C41.97967024 40.90385732 41.94051753 45.8148693 41.90234375 50.7265625 C31.34234375 50.7265625 20.78234375 50.7265625 9.90234375 50.7265625 C9.90234375 53.6965625 9.90234375 56.6665625 9.90234375 59.7265625 C11.55234375 59.7265625 13.20234375 59.7265625 14.90234375 59.7265625 C14.90234375 58.0765625 14.90234375 56.4265625 14.90234375 54.7265625 C23.81234375 54.7265625 32.72234375 54.7265625 41.90234375 54.7265625 C41.96421875 57.4284375 42.02609375 60.1303125 42.08984375 62.9140625 C42.13081177 64.17706177 42.13081177 64.17706177 42.17260742 65.46557617 C42.22312154 70.03520253 41.96781424 73.08922549 38.90234375 76.7265625 C34.27823687 80.43225944 29.87746436 80.16335468 24.21875 80.125 C23.28562485 80.12787018 22.35249969 80.13074036 21.39109802 80.13369751 C19.42177726 80.13573483 17.45243611 80.1302282 15.4831543 80.11767578 C12.4785403 80.10163562 9.47527511 80.1175265 6.47070312 80.13671875 C4.55338246 80.13473591 2.63606264 80.13089138 0.71875 80.125 C-0.17516953 80.13107269 -1.06908905 80.13714539 -1.99009705 80.1434021 C-7.08696099 80.08631533 -10.71749602 79.62623112 -15.09765625 76.7265625 C-17.47022147 73.16771467 -17.3753146 71.55847901 -17.43579102 67.33081055 C-17.45309517 66.36437622 -17.45309517 66.36437622 -17.4707489 65.37841797 C-17.50503925 63.24834762 -17.52355418 61.11856691 -17.5390625 58.98828125 C-17.5459654 58.25933969 -17.55286831 57.53039814 -17.55998039 56.77936745 C-17.59580838 52.92102467 -17.6193509 49.06282798 -17.63305664 45.2043457 C-17.64959928 41.22579137 -17.70801342 37.24901634 -17.77620029 33.27105999 C-17.82105461 30.20573368 -17.83455599 27.14083117 -17.839674 24.07520485 C-17.84755366 22.60914946 -17.8671575 21.14310684 -17.89889717 19.67737389 C-18.12371575 8.56133546 -18.12371575 8.56133546 -15.84324646 4.48345947 C-11.31605213 -0.03263462 -6.09267361 -0.12366346 0 0 Z M9.90234375 21.7265625 C9.90234375 24.3665625 9.90234375 27.0065625 9.90234375 29.7265625 C11.55234375 29.7265625 13.20234375 29.7265625 14.90234375 29.7265625 C14.90234375 27.0865625 14.90234375 24.4465625 14.90234375 21.7265625 C13.25234375 21.7265625 11.60234375 21.7265625 9.90234375 21.7265625 Z " fill="#FFFFFF" transform="translate(117.09765625,164.2734375)"/>
<path d="M0 0 C0.9524913 -0.00099701 1.9049826 -0.00199402 2.88633728 -0.00302124 C4.89086291 0.00164033 6.89540242 0.0209804 8.8996582 0.05419922 C11.95956498 0.10148093 15.01599127 0.09529899 18.07617188 0.08203125 C20.02996859 0.09318385 21.9837507 0.10740303 23.9375 0.125 C25.30177879 0.12226578 25.30177879 0.12226578 26.69361877 0.11947632 C32.20920331 0.24204702 35.60628281 0.92805492 39.90234375 4.7265625 C41.65206653 7.58955823 42.14948606 9.70093884 42.12939453 13.03613281 C42.12924347 13.87670227 42.12909241 14.71727173 42.12893677 15.58331299 C42.1186142 16.48136658 42.10829163 17.37942017 42.09765625 18.3046875 C42.09482635 19.2312616 42.09199646 20.15783569 42.08908081 21.11248779 C42.07789986 24.06731159 42.05279902 27.02183055 42.02734375 29.9765625 C42.01731126 31.98176645 42.00818588 33.98697516 42 35.9921875 C41.97967024 40.90385732 41.94051753 45.8148693 41.90234375 50.7265625 C31.34234375 50.7265625 20.78234375 50.7265625 9.90234375 50.7265625 C9.90234375 53.6965625 9.90234375 56.6665625 9.90234375 59.7265625 C11.55234375 59.7265625 13.20234375 59.7265625 14.90234375 59.7265625 C14.90234375 58.0765625 14.90234375 56.4265625 14.90234375 54.7265625 C23.81234375 54.7265625 32.72234375 54.7265625 41.90234375 54.7265625 C41.96421875 57.4284375 42.02609375 60.1303125 42.08984375 62.9140625 C42.13081177 64.17706177 42.13081177 64.17706177 42.17260742 65.46557617 C42.22312154 70.03520253 41.96781424 73.08922549 38.90234375 76.7265625 C34.27823687 80.43225944 29.87746436 80.16335468 24.21875 80.125 C23.28562485 80.12787018 22.35249969 80.13074036 21.39109802 80.13369751 C19.42177726 80.13573483 17.45243611 80.1302282 15.4831543 80.11767578 C12.4785403 80.10163562 9.47527511 80.1175265 6.47070312 80.13671875 C4.55338246 80.13473591 2.63606264 80.13089138 0.71875 80.125 C-0.17516953 80.13107269 -1.06908905 80.13714539 -1.99009705 80.1434021 C-7.08696099 80.08631533 -10.71749602 79.62623112 -15.09765625 76.7265625 C-17.47022147 73.16771467 -17.3753146 71.55847901 -17.43579102 67.33081055 C-17.45309517 66.36437622 -17.45309517 66.36437622 -17.4707489 65.37841797 C-17.50503925 63.24834762 -17.52355418 61.11856691 -17.5390625 58.98828125 C-17.5459654 58.25933969 -17.55286831 57.53039814 -17.55998039 56.77936745 C-17.59580838 52.92102467 -17.6193509 49.06282798 -17.63305664 45.2043457 C-17.64959928 41.22579137 -17.70801342 37.24901634 -17.77620029 33.27105999 C-17.82105461 30.20573368 -17.83455599 27.14083117 -17.839674 24.07520485 C-17.84755366 22.60914946 -17.8671575 21.14310684 -17.89889717 19.67737389 C-18.12371575 8.56133546 -18.12371575 8.56133546 -15.84324646 4.48345947 C-11.31605213 -0.03263462 -6.09267361 -0.12366346 0 0 Z M9.90234375 21.7265625 C9.90234375 24.3665625 9.90234375 27.0065625 9.90234375 29.7265625 C11.55234375 29.7265625 13.20234375 29.7265625 14.90234375 29.7265625 C14.90234375 27.0865625 14.90234375 24.4465625 14.90234375 21.7265625 C13.25234375 21.7265625 11.60234375 21.7265625 9.90234375 21.7265625 Z " fill="#FFFFFF" transform="translate(177.09765625,82.2734375)"/>
<path d="M0 0 C8.91 0 17.82 0 27 0 C27 19.47 27 38.94 27 59 C28.65 59 30.3 59 32 59 C32 39.53 32 20.06 32 0 C40.91 0 49.82 0 59 0 C59.067814 9.17088778 59.12283807 18.34160864 59.15543652 27.51269054 C59.17108322 31.77133192 59.19230318 36.02979266 59.22631836 40.28833008 C59.25894752 44.39913518 59.27686051 48.50976668 59.28463173 52.6206913 C59.29016887 54.18796839 59.30098165 55.75523613 59.31719017 57.32243919 C59.33901228 59.52009893 59.34196501 61.71704403 59.34057617 63.91479492 C59.34723801 65.16499924 59.35389984 66.41520355 59.36076355 67.70329285 C58.96814703 71.29107687 58.15142163 73.13538545 56 76 C48.91369769 81.22148591 40.42290559 80.21836101 32.01806641 80.24023438 C29.77077802 80.24991054 27.52441683 80.28095521 25.27734375 80.3125 C8.42902097 80.44081287 8.42902097 80.44081287 1.91772461 75.38232422 C-0.71412853 72.11286235 -0.48283865 70.01160377 -0.45410156 65.84472656 C-0.45468567 65.13213181 -0.45526978 64.41953705 -0.45587158 63.68534851 C-0.45309109 61.3366069 -0.42200323 58.9891441 -0.390625 56.640625 C-0.38316243 55.00967095 -0.37746957 53.37870793 -0.37347412 51.7477417 C-0.35821892 47.46001323 -0.31893854 43.17282881 -0.2746582 38.88531494 C-0.23370277 34.50825357 -0.21546255 30.13110409 -0.1953125 25.75390625 C-0.15244363 17.16899363 -0.08209516 8.58462722 0 0 Z " fill="#FFFFFF" transform="translate(160,246)"/>
<path d="M0 0 C8.91 0 17.82 0 27 0 C27 1.65 27 3.3 27 5 C37.56 5 48.12 5 59 5 C59 11.93 59 18.86 59 26 C48.44 26 37.88 26 27 26 C27 36.89 27 47.78 27 59 C28.65 59 30.3 59 32 59 C32 49.1 32 39.2 32 29 C40.91 29 49.82 29 59 29 C59.09191308 35.03307234 59.17152639 41.06370874 59.21972656 47.09692383 C59.23982199 49.14843993 59.26710324 51.19989889 59.30175781 53.2512207 C59.35036669 56.20278025 59.37298952 59.15358148 59.390625 62.10546875 C59.41127014 63.02023483 59.43191528 63.93500092 59.45318604 64.87748718 C59.45463848 69.01436348 59.37120206 71.37378804 57.22558594 74.9934082 C53.86450348 78.02376546 51.21988025 79.24370397 46.69384766 79.29052734 C45.8526236 79.30328705 45.01139954 79.31604675 44.14468384 79.32919312 C43.2435788 79.33141876 42.34247375 79.33364441 41.4140625 79.3359375 C40.4795224 79.3425943 39.5449823 79.3492511 38.5821228 79.35610962 C36.60685186 79.36622548 34.63154682 79.37092697 32.65625 79.37060547 C29.64265271 79.37497441 26.63052536 79.41129345 23.6171875 79.44921875 C21.69531749 79.45508806 19.77344055 79.45905669 17.8515625 79.4609375 C16.95450592 79.47530853 16.05744934 79.48967957 15.13320923 79.50448608 C9.59906484 79.46430687 6.35618304 78.74755502 2 75 C-0.11931075 71.82103387 -0.2469603 71.07025468 -0.22705078 67.43676758 C-0.22689972 66.51603958 -0.22674866 65.59531158 -0.22659302 64.64668274 C-0.21627045 63.65597275 -0.20594788 62.66526276 -0.1953125 61.64453125 C-0.19106766 60.11937141 -0.19106766 60.11937141 -0.18673706 58.56340027 C-0.17553383 55.31298092 -0.15042886 52.06283619 -0.125 48.8125 C-0.11497039 46.61003002 -0.10584451 44.40755572 -0.09765625 42.20507812 C-0.07559405 36.80329157 -0.04211508 31.40166541 0 26 C-1.98 26 -3.96 26 -6 26 C-6 19.07 -6 12.14 -6 5 C-4.02 5 -2.04 5 0 5 C0 3.35 0 1.7 0 0 Z " fill="#FFFFFF" transform="translate(233,165)"/>
<path d="M0 0 C8.91 0 17.82 0 27 0 C27.33 0.66 27.66 1.32 28 2 C28.8146875 1.67773438 29.629375 1.35546875 30.46875 1.0234375 C34.59769309 -0.17322521 38.22932632 -0.36749442 42.5 -0.375 C43.60021484 -0.41173828 43.60021484 -0.41173828 44.72265625 -0.44921875 C49.91912587 -0.47710678 52.92876493 0.50511448 57 4 C59.39325884 7.55142687 59.24196167 10.76680842 59.22705078 14.97167969 C59.22734283 15.6647673 59.22763489 16.35785492 59.22793579 17.07194519 C59.22654608 19.35538392 59.21100206 21.6384935 59.1953125 23.921875 C59.19158109 25.50799379 59.18873472 27.09411489 59.18673706 28.68023682 C59.17911068 32.84940993 59.15947078 37.01844311 59.1373291 41.18756104 C59.11684921 45.44403185 59.10773076 49.70052534 59.09765625 53.95703125 C59.07622389 62.30475879 59.0410499 70.65234585 59 79 C50.09 79 41.18 79 32 79 C32 59.53 32 40.06 32 20 C30.35 20 28.7 20 27 20 C27 39.47 27 58.94 27 79 C18.09 79 9.18 79 0 79 C0 52.93 0 26.86 0 0 Z " fill="#FFFFFF" transform="translate(381,83)"/>
<path d="M0 0 C8.91 0 17.82 0 27 0 C27.33 0.66 27.66 1.32 28 2 C28.8146875 1.67773438 29.629375 1.35546875 30.46875 1.0234375 C34.59769309 -0.17322521 38.22932632 -0.36749442 42.5 -0.375 C43.60021484 -0.41173828 43.60021484 -0.41173828 44.72265625 -0.44921875 C49.91912587 -0.47710678 52.92876493 0.50511448 57 4 C59.39325884 7.55142687 59.24196167 10.76680842 59.22705078 14.97167969 C59.22734283 15.6647673 59.22763489 16.35785492 59.22793579 17.07194519 C59.22654608 19.35538392 59.21100206 21.6384935 59.1953125 23.921875 C59.19158109 25.50799379 59.18873472 27.09411489 59.18673706 28.68023682 C59.17911068 32.84940993 59.15947078 37.01844311 59.1373291 41.18756104 C59.11684921 45.44403185 59.10773076 49.70052534 59.09765625 53.95703125 C59.07622389 62.30475879 59.0410499 70.65234585 59 79 C50.09 79 41.18 79 32 79 C32 59.53 32 40.06 32 20 C30.35 20 28.7 20 27 20 C27 39.47 27 58.94 27 79 C18.09 79 9.18 79 0 79 C0 52.93 0 26.86 0 0 Z " fill="#FFFFFF" transform="translate(3,83)"/>
<path d="M0 0 C8.91 0 17.82 0 27 0 C27 19.47 27 38.94 27 59 C28.65 59 30.3 59 32 59 C32 39.53 32 20.06 32 0 C40.91 0 49.82 0 59 0 C59.067814 9.17088778 59.12283807 18.34160864 59.15543652 27.51269054 C59.17108322 31.77133192 59.19230318 36.02979266 59.22631836 40.28833008 C59.25894752 44.39913518 59.27686051 48.50976668 59.28463173 52.6206913 C59.29016887 54.18796839 59.30098165 55.75523613 59.31719017 57.32243919 C59.33901228 59.52009893 59.34196501 61.71704403 59.34057617 63.91479492 C59.34723801 65.16499924 59.35389984 66.41520355 59.36076355 67.70329285 C58.86522002 72.23163806 57.34858402 74.84226378 53.91772461 77.78759766 C49.70515949 79.53804518 45.83590759 79.42907061 41.31640625 79.3984375 C40.3832811 79.40130768 39.45015594 79.40417786 38.48875427 79.40713501 C36.51943351 79.40917233 34.55009236 79.4036657 32.58081055 79.39111328 C29.57619655 79.37507312 26.57293136 79.390964 23.56835938 79.41015625 C21.65103871 79.40817341 19.73371889 79.40432888 17.81640625 79.3984375 C16.92248672 79.40451019 16.0285672 79.41058289 15.1075592 79.4168396 C10.01069526 79.35975283 6.38016023 78.89966862 2 76 C-0.48107164 72.27839254 -0.24234952 70.40253567 -0.22705078 65.95825195 C-0.22734283 65.24580322 -0.22763489 64.53335449 -0.22793579 63.79931641 C-0.22654296 61.44551393 -0.21098419 59.0920284 -0.1953125 56.73828125 C-0.1915822 55.10589267 -0.18873531 53.47350185 -0.18673706 51.84111023 C-0.17910194 47.54533707 -0.15945452 43.24969921 -0.1373291 38.95397949 C-0.11686805 34.57024974 -0.10773479 30.18649812 -0.09765625 25.80273438 C-0.07620847 17.20175391 -0.04102734 8.60090938 0 0 Z " fill="#FFFFFF" transform="translate(316,83)"/>
<path d="M0 0 C0.9524913 -0.00099701 1.9049826 -0.00199402 2.88633728 -0.00302124 C4.89086291 0.00164033 6.89540242 0.0209804 8.8996582 0.05419922 C11.95956498 0.10148093 15.01599127 0.09529899 18.07617188 0.08203125 C20.02996859 0.09318385 21.9837507 0.10740303 23.9375 0.125 C25.30177879 0.12226578 25.30177879 0.12226578 26.69361877 0.11947632 C32.20920331 0.24204702 35.60628281 0.92805492 39.90234375 4.7265625 C41.82956709 7.52590447 42.14564953 9.69515825 42.09765625 13.0546875 C42.09266113 13.7755957 42.08766602 14.49650391 42.08251953 15.23925781 C42.06431152 16.14256836 42.04610352 17.04587891 42.02734375 17.9765625 C41.98609375 20.8640625 41.94484375 23.7515625 41.90234375 26.7265625 C32.99234375 26.7265625 24.08234375 26.7265625 14.90234375 26.7265625 C14.90234375 25.0765625 14.90234375 23.4265625 14.90234375 21.7265625 C13.25234375 21.7265625 11.60234375 21.7265625 9.90234375 21.7265625 C9.90234375 24.3665625 9.90234375 27.0065625 9.90234375 29.7265625 C10.5979541 29.70561523 11.29356445 29.68466797 12.01025391 29.66308594 C15.18246833 29.5795927 18.35445106 29.52779721 21.52734375 29.4765625 C23.16896484 29.42628906 23.16896484 29.42628906 24.84375 29.375 C31.14840227 29.29857997 35.22428639 29.28163092 39.90234375 33.7265625 C42.37408916 37.36651651 42.20859722 41.13171032 42.203125 45.37890625 C42.20741013 46.11605362 42.21169525 46.85320099 42.21611023 47.61268616 C42.22184121 49.16845678 42.22236287 50.72425419 42.21801758 52.2800293 C42.21485894 54.65264883 42.23832555 57.02401899 42.26367188 59.39648438 C42.26594524 60.91145677 42.26664819 62.4264325 42.265625 63.94140625 C42.27483475 64.6467601 42.28404449 65.35211395 42.29353333 66.07884216 C42.25251424 70.47405198 41.58359556 73.22551362 38.90234375 76.7265625 C31.81604144 81.94804841 23.32524934 80.94492351 14.92041016 80.96679688 C12.67312177 80.97647304 10.42676058 81.00751771 8.1796875 81.0390625 C-0.53836657 81.10545715 -8.06035338 80.84783606 -15.64453125 76.1484375 C-17.97698787 72.2610098 -17.51645388 68.40563297 -17.34765625 63.9765625 C-17.26515625 60.9240625 -17.18265625 57.8715625 -17.09765625 54.7265625 C-8.18765625 54.7265625 0.72234375 54.7265625 9.90234375 54.7265625 C9.90234375 56.3765625 9.90234375 58.0265625 9.90234375 59.7265625 C11.55234375 59.7265625 13.20234375 59.7265625 14.90234375 59.7265625 C14.90234375 56.7565625 14.90234375 53.7865625 14.90234375 50.7265625 C13.00162109 50.77876953 13.00162109 50.77876953 11.0625 50.83203125 C9.36329464 50.86019487 7.66407477 50.88749225 5.96484375 50.9140625 C5.13404297 50.93919922 4.30324219 50.96433594 3.44726562 50.99023438 C-3.42370876 51.0704403 -9.62741749 50.21692869 -15.31542969 46.13500977 C-17.83299344 42.73284998 -17.72741316 39.53126698 -17.734375 35.453125 C-17.74531693 34.65176117 -17.75625885 33.85039734 -17.76753235 33.02474976 C-17.7833751 31.33199483 -17.7886003 29.6391117 -17.78393555 27.94628906 C-17.78514962 25.36565413 -17.84489149 22.79070205 -17.90820312 20.2109375 C-17.91634658 18.56251382 -17.92101733 16.91406858 -17.921875 15.265625 C-17.94545578 14.4998111 -17.96903656 13.73399719 -17.99333191 12.94497681 C-17.92115547 8.70485308 -17.23170682 6.27195646 -14.17724609 3.23828125 C-9.6834344 -0.09175237 -5.43380496 -0.11029035 0 0 Z " fill="#FFFFFF" transform="translate(84.09765625,245.2734375)"/>
<path d="M0 0 C0.9524913 -0.00099701 1.9049826 -0.00199402 2.88633728 -0.00302124 C4.89086291 0.00164033 6.89540242 0.0209804 8.8996582 0.05419922 C11.95956498 0.10148093 15.01599127 0.09529899 18.07617188 0.08203125 C20.02996859 0.09318385 21.9837507 0.10740303 23.9375 0.125 C25.30177879 0.12226578 25.30177879 0.12226578 26.69361877 0.11947632 C32.20920331 0.24204702 35.60628281 0.92805492 39.90234375 4.7265625 C41.82956709 7.52590447 42.14564953 9.69515825 42.09765625 13.0546875 C42.09266113 13.7755957 42.08766602 14.49650391 42.08251953 15.23925781 C42.06431152 16.14256836 42.04610352 17.04587891 42.02734375 17.9765625 C41.98609375 20.8640625 41.94484375 23.7515625 41.90234375 26.7265625 C32.99234375 26.7265625 24.08234375 26.7265625 14.90234375 26.7265625 C14.90234375 25.0765625 14.90234375 23.4265625 14.90234375 21.7265625 C13.25234375 21.7265625 11.60234375 21.7265625 9.90234375 21.7265625 C9.90234375 24.3665625 9.90234375 27.0065625 9.90234375 29.7265625 C10.5979541 29.70561523 11.29356445 29.68466797 12.01025391 29.66308594 C15.18246833 29.5795927 18.35445106 29.52779721 21.52734375 29.4765625 C23.16896484 29.42628906 23.16896484 29.42628906 24.84375 29.375 C31.14840227 29.29857997 35.22428639 29.28163092 39.90234375 33.7265625 C42.37408916 37.36651651 42.20859722 41.13171032 42.203125 45.37890625 C42.20741013 46.11605362 42.21169525 46.85320099 42.21611023 47.61268616 C42.22184121 49.16845678 42.22236287 50.72425419 42.21801758 52.2800293 C42.21485894 54.65264883 42.23832555 57.02401899 42.26367188 59.39648438 C42.26594524 60.91145677 42.26664819 62.4264325 42.265625 63.94140625 C42.27483475 64.6467601 42.28404449 65.35211395 42.29353333 66.07884216 C42.25246775 70.47903392 41.69645601 73.29061624 38.90234375 76.7265625 C34.45459759 80.54890961 29.75771968 80.16264951 24.18359375 80.125 C23.24809692 80.12787018 22.3126001 80.13074036 21.34875488 80.13369751 C19.37523797 80.13573465 17.4017007 80.1302293 15.42822266 80.11767578 C12.41262535 80.10161725 9.39836827 80.11753645 6.3828125 80.13671875 C4.46223663 80.13473626 2.5416616 80.13089245 0.62109375 80.125 C-0.27798706 80.13107269 -1.17706787 80.13714539 -2.10339355 80.1434021 C-6.93685859 80.08927034 -10.17839324 79.85921286 -14.09765625 76.7265625 C-14.68973877 76.26145264 -15.28182129 75.79634277 -15.8918457 75.31713867 C-17.4932663 73.20471608 -17.44358769 71.90782419 -17.390625 69.27734375 C-17.38313232 68.51333252 -17.37563965 67.74932129 -17.36791992 66.9621582 C-17.34060791 65.99753662 -17.3132959 65.03291504 -17.28515625 64.0390625 C-17.22328125 60.9659375 -17.16140625 57.8928125 -17.09765625 54.7265625 C-8.18765625 54.7265625 0.72234375 54.7265625 9.90234375 54.7265625 C9.90234375 56.3765625 9.90234375 58.0265625 9.90234375 59.7265625 C11.55234375 59.7265625 13.20234375 59.7265625 14.90234375 59.7265625 C14.90234375 56.7565625 14.90234375 53.7865625 14.90234375 50.7265625 C13.00162109 50.77876953 13.00162109 50.77876953 11.0625 50.83203125 C9.36329464 50.86019487 7.66407477 50.88749225 5.96484375 50.9140625 C5.13404297 50.93919922 4.30324219 50.96433594 3.44726562 50.99023438 C-3.42370876 51.0704403 -9.62741749 50.21692869 -15.31542969 46.13500977 C-17.83299344 42.73284998 -17.72741316 39.53126698 -17.734375 35.453125 C-17.74531693 34.65176117 -17.75625885 33.85039734 -17.76753235 33.02474976 C-17.7833751 31.33199483 -17.7886003 29.6391117 -17.78393555 27.94628906 C-17.78514962 25.36565413 -17.84489149 22.79070205 -17.90820312 20.2109375 C-17.91634658 18.56251382 -17.92101733 16.91406858 -17.921875 15.265625 C-17.94545578 14.4998111 -17.96903656 13.73399719 -17.99333191 12.94497681 C-17.92115547 8.70485308 -17.23170682 6.27195646 -14.17724609 3.23828125 C-9.6834344 -0.09175237 -5.43380496 -0.11029035 0 0 Z " fill="#FFFFFF" transform="translate(181.09765625,164.2734375)"/>
<path d="M0 0 C0.9524913 -0.00099701 1.9049826 -0.00199402 2.88633728 -0.00302124 C4.89086291 0.00164033 6.89540242 0.0209804 8.8996582 0.05419922 C11.95956498 0.10148093 15.01599127 0.09529899 18.07617188 0.08203125 C20.02996859 0.09318385 21.9837507 0.10740303 23.9375 0.125 C25.30177879 0.12226578 25.30177879 0.12226578 26.69361877 0.11947632 C32.20920331 0.24204702 35.60628281 0.92805492 39.90234375 4.7265625 C41.82956709 7.52590447 42.14564953 9.69515825 42.09765625 13.0546875 C42.09266113 13.7755957 42.08766602 14.49650391 42.08251953 15.23925781 C42.06431152 16.14256836 42.04610352 17.04587891 42.02734375 17.9765625 C41.98609375 20.8640625 41.94484375 23.7515625 41.90234375 26.7265625 C32.99234375 26.7265625 24.08234375 26.7265625 14.90234375 26.7265625 C14.90234375 25.0765625 14.90234375 23.4265625 14.90234375 21.7265625 C13.25234375 21.7265625 11.60234375 21.7265625 9.90234375 21.7265625 C9.90234375 24.3665625 9.90234375 27.0065625 9.90234375 29.7265625 C10.5979541 29.70561523 11.29356445 29.68466797 12.01025391 29.66308594 C15.18246833 29.5795927 18.35445106 29.52779721 21.52734375 29.4765625 C23.16896484 29.42628906 23.16896484 29.42628906 24.84375 29.375 C31.14840227 29.29857997 35.22428639 29.28163092 39.90234375 33.7265625 C42.37408916 37.36651651 42.20859722 41.13171032 42.203125 45.37890625 C42.20741013 46.11605362 42.21169525 46.85320099 42.21611023 47.61268616 C42.22184121 49.16845678 42.22236287 50.72425419 42.21801758 52.2800293 C42.21485894 54.65264883 42.23832555 57.02401899 42.26367188 59.39648438 C42.26594524 60.91145677 42.26664819 62.4264325 42.265625 63.94140625 C42.27483475 64.6467601 42.28404449 65.35211395 42.29353333 66.07884216 C42.25246775 70.47903392 41.69645601 73.29061624 38.90234375 76.7265625 C34.45459759 80.54890961 29.75771968 80.16264951 24.18359375 80.125 C23.24809692 80.12787018 22.3126001 80.13074036 21.34875488 80.13369751 C19.37523797 80.13573465 17.4017007 80.1302293 15.42822266 80.11767578 C12.41262535 80.10161725 9.39836827 80.11753645 6.3828125 80.13671875 C4.46223663 80.13473626 2.5416616 80.13089245 0.62109375 80.125 C-0.27798706 80.13107269 -1.17706787 80.13714539 -2.10339355 80.1434021 C-6.93685859 80.08927034 -10.17839324 79.85921286 -14.09765625 76.7265625 C-14.68973877 76.26145264 -15.28182129 75.79634277 -15.8918457 75.31713867 C-17.4932663 73.20471608 -17.44358769 71.90782419 -17.390625 69.27734375 C-17.38313232 68.51333252 -17.37563965 67.74932129 -17.36791992 66.9621582 C-17.34060791 65.99753662 -17.3132959 65.03291504 -17.28515625 64.0390625 C-17.22328125 60.9659375 -17.16140625 57.8928125 -17.09765625 54.7265625 C-8.18765625 54.7265625 0.72234375 54.7265625 9.90234375 54.7265625 C9.90234375 56.3765625 9.90234375 58.0265625 9.90234375 59.7265625 C11.55234375 59.7265625 13.20234375 59.7265625 14.90234375 59.7265625 C14.90234375 56.7565625 14.90234375 53.7865625 14.90234375 50.7265625 C13.00162109 50.77876953 13.00162109 50.77876953 11.0625 50.83203125 C9.36329464 50.86019487 7.66407477 50.88749225 5.96484375 50.9140625 C5.13404297 50.93919922 4.30324219 50.96433594 3.44726562 50.99023438 C-3.42370876 51.0704403 -9.62741749 50.21692869 -15.31542969 46.13500977 C-17.83299344 42.73284998 -17.72741316 39.53126698 -17.734375 35.453125 C-17.74531693 34.65176117 -17.75625885 33.85039734 -17.76753235 33.02474976 C-17.7833751 31.33199483 -17.7886003 29.6391117 -17.78393555 27.94628906 C-17.78514962 25.36565413 -17.84489149 22.79070205 -17.90820312 20.2109375 C-17.91634658 18.56251382 -17.92101733 16.91406858 -17.921875 15.265625 C-17.94545578 14.4998111 -17.96903656 13.73399719 -17.99333191 12.94497681 C-17.92115547 8.70485308 -17.23170682 6.27195646 -14.17724609 3.23828125 C-9.6834344 -0.09175237 -5.43380496 -0.11029035 0 0 Z " fill="#FFFFFF" transform="translate(241.09765625,82.2734375)"/>
<path d="M0 0 C12.436875 -0.12375 12.436875 -0.12375 25.125 -0.25 C29.03690186 -0.30462402 29.03690186 -0.30462402 33.02783203 -0.36035156 C35.10448382 -0.37203855 37.18114479 -0.38223035 39.2578125 -0.390625 C40.86354126 -0.4213208 40.86354126 -0.4213208 42.50170898 -0.45263672 C48.62874884 -0.45549915 52.42666827 -0.25673801 57 4 C59.59982575 7.42259688 59.30628083 11.29715029 59.30078125 15.43359375 C59.30506638 16.14854507 59.3093515 16.8634964 59.31376648 17.60011292 C59.31949654 19.10880476 59.3200198 20.61752423 59.31567383 22.1262207 C59.31251521 24.42642661 59.33598258 26.72534371 59.36132812 29.02539062 C59.36360151 30.49479005 59.36430443 31.96419292 59.36328125 33.43359375 C59.372491 34.11707382 59.38170074 34.80055389 59.39118958 35.50474548 C59.34943519 39.84453491 58.63316301 42.53959911 56 46 C49.86341094 50.5216972 43.48746217 50.13272182 36.1875 50.0625 C33.155625 50.041875 30.12375 50.02125 27 50 C27 59.9 27 69.8 27 80 C18.09 80 9.18 80 0 80 C0 53.6 0 27.2 0 0 Z M27 21 C27 23.64 27 26.28 27 29 C28.65 29 30.3 29 32 29 C32 26.36 32 23.72 32 21 C30.35 21 28.7 21 27 21 Z " fill="#FFFFFF" transform="translate(316,246)"/>
<path d="M0 0 C8.91 0 17.82 0 27 0 C27 27.72 27 55.44 27 84 C39.54 84 52.08 84 65 84 C65 90.6 65 97.2 65 104 C57.6545015 104.06786243 50.30917523 104.12286574 42.96342945 104.15543652 C39.55224239 104.17107139 36.14128151 104.19226914 32.73022461 104.22631836 C28.80585466 104.26524491 24.88157529 104.2797273 20.95703125 104.29296875 C19.73603226 104.30845261 18.51503326 104.32393646 17.2570343 104.33988953 C16.1162291 104.34011612 14.97542389 104.34034271 13.80004883 104.34057617 C12.79855301 104.34723801 11.79705719 104.35389984 10.76521301 104.36076355 C6.25585375 103.77244994 2.8854102 101.45883746 0 98 C-0.36914349 96.10035419 -0.36914349 96.10035419 -0.36076355 93.91877747 C-0.36488754 93.09006638 -0.36901154 92.26135529 -0.3732605 91.40753174 C-0.36247467 90.50194519 -0.35168884 89.59635864 -0.34057617 88.66333008 C-0.34101425 87.70704208 -0.34145233 86.75075409 -0.34190369 85.76548767 C-0.3398112 82.59996223 -0.31645816 79.43496433 -0.29296875 76.26953125 C-0.28737444 74.07663767 -0.28310356 71.88374034 -0.28010559 69.69084167 C-0.26864387 63.91543246 -0.23916511 58.1402491 -0.20599365 52.3649292 C-0.17532146 46.47313492 -0.16160635 40.5813042 -0.14648438 34.68945312 C-0.11429677 23.12618682 -0.06151785 11.56314751 0 0 Z " fill="#FFFFFF" transform="translate(381,246)"/>
<path d="M0 0 C1.1442897 0.00848969 2.28857941 0.01697937 3.46754456 0.02572632 C7.10564161 0.05918816 10.74148439 0.13446146 14.37890625 0.2109375 C16.85218143 0.24104609 19.32549151 0.26842032 21.79882812 0.29296875 C27.84721658 0.3589571 33.89392983 0.4624356 39.94140625 0.5859375 C39.94140625 7.5159375 39.94140625 14.4459375 39.94140625 21.5859375 C29.38140625 21.5859375 18.82140625 21.5859375 7.94140625 21.5859375 C7.94140625 22.5759375 7.94140625 23.5659375 7.94140625 24.5859375 C18.50140625 24.5859375 29.06140625 24.5859375 39.94140625 24.5859375 C39.94140625 31.5159375 39.94140625 38.4459375 39.94140625 45.5859375 C29.38140625 45.5859375 18.82140625 45.5859375 7.94140625 45.5859375 C7.94140625 56.8059375 7.94140625 68.0259375 7.94140625 79.5859375 C-0.96859375 79.5859375 -9.87859375 79.5859375 -19.05859375 79.5859375 C-19.21690284 70.17159165 -19.34525394 60.75813328 -19.42127895 51.34275627 C-19.45777225 46.97051317 -19.50724782 42.5992298 -19.58666992 38.22753906 C-19.66287423 34.00642635 -19.70461341 29.78623506 -19.72273445 25.56448746 C-19.73564319 23.95605082 -19.76085283 22.34766322 -19.79870415 20.73962021 C-20.0732002 8.59218382 -20.0732002 8.59218382 -17.87757874 4.25064087 C-13.0459895 -0.74530997 -6.49551269 -0.18264759 0 0 Z " fill="#FFFFFF" transform="translate(22.05859375,164.4140625)"/>
<path d="M0 0 C8.91 0 17.82 0 27 0 C27 18.15 27 36.3 27 55 C18.09 55 9.18 55 0 55 C0 36.85 0 18.7 0 0 Z " fill="#FFFFFF" transform="translate(67,189)"/>
<path d="M0 0 C8.91 0 17.82 0 27 0 C27 6.93 27 13.86 27 21 C18.09 21 9.18 21 0 21 C0 14.07 0 7.14 0 0 Z " fill="#FFFFFF" transform="translate(67,165)"/>
</svg>
