<?xml version="1.0" encoding="UTF-8" standalone="no"?>
<svg
   aria-hidden="true"
   fill="none"
   width="258.52802"
   height="132"
   viewBox="0 0 258.52802 132"
   class="_1jyak14k"
   focusable="false"
   version="1.1"
   id="svg4"
   sodipodi:docname="logo-cutted.svg"
   inkscape:version="1.4 (e7c3feb100, 2024-10-09)"
   xmlns:inkscape="http://www.inkscape.org/namespaces/inkscape"
   xmlns:sodipodi="http://sodipodi.sourceforge.net/DTD/sodipodi-0.dtd"
   xmlns="http://www.w3.org/2000/svg"
   xmlns:svg="http://www.w3.org/2000/svg">
  <defs
     id="defs4" />
  <sodipodi:namedview
     id="namedview4"
     pagecolor="#ffffff"
     bordercolor="#000000"
     borderopacity="0.25"
     inkscape:showpageshadow="2"
     inkscape:pageopacity="0.0"
     inkscape:pagecheckerboard="0"
     inkscape:deskcolor="#d1d1d1"
     showgrid="false"
     inkscape:zoom="4"
     inkscape:cx="155.25"
     inkscape:cy="74.375"
     inkscape:window-width="1920"
     inkscape:window-height="1043"
     inkscape:window-x="0"
     inkscape:window-y="0"
     inkscape:window-maximized="1"
     inkscape:current-layer="svg4">
    <inkscape:grid
       id="grid4"
       units="px"
       originx="0"
       originy="0"
       spacingx="1"
       spacingy="1"
       empcolor="#0099e5"
       empopacity="0.30196078"
       color="#0099e5"
       opacity="0.14901961"
       empspacing="5"
       enabled="true"
       visible="false" />
    <inkscape:page
       x="0"
       y="0"
       width="258.52802"
       height="132"
       id="page4"
       margin="0"
       bleed="0" />
  </sodipodi:namedview>
  <path
     d="M 26.4874,45.0876 6.73309,4.22697 H 41.7481 l 18.212,39.73343 0.5191,1.1272 h 6.6441 l 0.519,-1.1123 18.301,-39.74833 H 120.973 L 101.189,45.0876 h 4.687 L 127.706,0 H 83.2293 L 63.8012,42.2103 44.4621,0 H 0 l 21.801,45.0876 z"
     fill="currentColor"
     id="path1" />
  <path
     d="m 101.19885,86.9124 19.75431,40.86063 H 85.93815 l -18.212,-39.73343 -0.5191,-1.1272 h -6.6441 l -0.519,1.1123 -18.301,39.74833 H 6.71325 l 19.784,-40.86063 h -4.687 L -0.01974995,132 H 44.45695 L 63.88505,89.7897 83.22415,132 h 44.4621 l -21.801,-45.0876 z"
     fill="currentColor"
     id="path1-3" />
  <path
     d="M 157.3094,45.0876 137.55509,4.22697 h 35.01501 l 18.212,39.73343 0.5191,1.1272 h 6.6441 l 0.519,-1.1123 18.301,-39.74833 H 251.795 L 232.011,45.0876 h 4.687 L 258.528,0 H 214.0513 L 194.6232,42.2103 175.2841,0 H 130.822 l 21.801,45.0876 z"
     fill="currentColor"
     id="path1-6" />
  <path
     d="M 215.8185,78.5314 194.6404,122.299 173.4772,78.5314 h -4.6865 l 25.8497,53.4676 25.8794,-53.4676 z"
     fill="currentColor"
     id="path2-7" />
</svg>
